<svg width="145" height="202" viewBox="0 0 145 202" fill="none" xmlns="http://www.w3.org/2000/svg">
<g clip-path="url(#clip0_32_15)">
<path d="M145 39.6978L131.79 185.753L72.4112 202L13.1959 185.776L0 39.6978H145Z" fill="#264DE4"/>
<path d="M120.481 176.453L131.77 51.6418H72.5V189.581L120.481 176.453Z" fill="#2965F1"/>
<path d="M30.8796 103.658L32.5066 121.574H73.1284V103.658H30.8796Z" fill="#EBEBEB"/>
<path d="M72.5 69.5579H72.4372H26.9822L28.6323 87.4739H72.5V69.5579Z" fill="#EBEBEB"/>
<path d="M72.5 170.989V152.349L72.4204 152.37L52.2039 146.983L50.9115 132.694H41.0879H32.6893L35.2325 160.824L72.4164 171.012L72.5 170.989Z" fill="#EBEBEB"/>
<path d="M34.1248 0H56.1106V9.07422H43.3188V18.1484H56.1106V27.2227H34.1248V0Z" fill="black"/>
<path d="M60.5078 0H82.4935V7.89062H69.7018V9.46875H82.4935V27.6172H60.5078V19.332H73.2995V17.7539H60.5078V0Z" fill="black"/>
<path d="M86.8907 0H108.877V7.89062H96.0848V9.46875H108.877V27.6172H86.8907V19.332H99.6824V17.7539H86.8907V0Z" fill="black"/>
<path d="M94.79 123.736L92.683 146.971L72.4372 152.364V171.004L109.651 160.824L109.924 157.798L114.189 110.631L114.632 105.82L117.909 69.5579H72.4372V87.4739H98.0159L96.3642 105.82H72.4372V123.736H94.79Z" fill="white"/>
</g>
<defs>
<clipPath id="clip0_32_15">
<rect width="145" height="202" fill="white"/>
</clipPath>
</defs>
</svg>
