<svg width="44" height="31" viewBox="0 0 44 31" fill="none" xmlns="http://www.w3.org/2000/svg">
<path d="M3.14286 6.2H40.8571C42.592 6.2 44 4.8112 44 3.1C44 1.3888 42.592 0 40.8571 0H3.14286C1.408 0 0 1.3888 0 3.1C0 4.8112 1.408 6.2 3.14286 6.2ZM40.8571 12.4H3.14286C1.408 12.4 0 13.7888 0 15.5C0 17.2112 1.408 18.6 3.14286 18.6H40.8571C42.592 18.6 44 17.2112 44 15.5C44 13.7888 42.592 12.4 40.8571 12.4ZM40.8571 24.8H3.14286C1.408 24.8 0 26.1888 0 27.9C0 29.6112 1.408 31 3.14286 31H40.8571C42.592 31 44 29.6112 44 27.9C44 26.1888 42.592 24.8 40.8571 24.8Z" fill="#505050"/>
</svg>
