<svg width="144" height="202" viewBox="0 0 144 202" fill="none" xmlns="http://www.w3.org/2000/svg">
<path d="M13.3351 0H22.4093V8.99531H30.7734V0H39.8476V27.2227H30.7734V18.1484H22.4882V27.2227H13.3351V0ZM51.8413 9.07422H43.8323V0H68.964V9.07422H60.9155V27.2227H51.8413V9.07422ZM72.9488 0H82.457L88.296 9.58711L94.1351 0H103.643V27.2227H94.5691V13.7297L88.2171 23.5141L81.8652 13.7297V27.2227H72.9488V0ZM108.141 0H117.215V18.2273H130.077V27.2227H108.141" fill="black"/>
<path d="M13.0195 185.824L0 39.6899H143.136L130.116 185.745L71.4496 202" fill="#E44D26"/>
<path d="M71.5679 189.572V51.6836H130.077L118.912 176.355" fill="#F16529"/>
<path d="M26.5914 69.5559H71.5679V87.4676H46.239L47.8961 105.813H71.5679V123.686H31.4836L26.5914 69.5559ZM32.2726 132.681H50.2632L51.5257 147.002L71.5679 152.368V171.069L34.7976 160.811" fill="#EBEBEB"/>
<path d="M116.387 69.5559H71.489V87.4676H114.73L116.387 69.5559ZM113.112 105.813H71.489V123.725H93.5828L91.4918 147.002L71.489 152.368V170.99L108.18 160.811" fill="white"/>
</svg>
