<svg width="143" height="21" viewBox="0 0 143 21" fill="none" xmlns="http://www.w3.org/2000/svg">
<path d="M0.226562 2.58594H7.01172L7 20H0.226562V2.58594ZM9.28516 8.38672H15.9414L18.7188 15.9336L21.4023 8.38672H24.0273L19.7031 20H17.2656V19.9883H13.9609L9.28516 8.38672ZM25.082 16.3438C25.082 15.7812 25.207 15.2578 25.457 14.7734C25.707 14.2891 26.0664 13.8672 26.5352 13.5078C27.0039 13.1484 27.5703 12.8672 28.2344 12.6641C28.8984 12.4531 29.6406 12.3477 30.4609 12.3477C31.2812 12.3477 32.0469 12.4453 32.7578 12.6406C33.4766 12.8281 34.0781 13.0703 34.5625 13.3672V13.2734C34.5625 12.7266 34.5 12.2617 34.375 11.8789C34.2578 11.4961 34.0742 11.1836 33.8242 10.9414C33.5742 10.6992 33.2539 10.5234 32.8633 10.4141C32.4805 10.3047 32.0273 10.25 31.5039 10.25C31.0273 10.25 30.5352 10.293 30.0273 10.3789C29.5195 10.457 29.0508 10.5742 28.6211 10.7305L27.7656 9.14844C28.6172 8.79688 29.4961 8.54688 30.4023 8.39844C31.3164 8.24219 32.2578 8.16406 33.2266 8.16406C34.4688 8.16406 35.5664 8.28516 36.5195 8.52734C37.4805 8.76172 38.2852 9.11719 38.9336 9.59375C39.5898 10.0625 40.0859 10.6562 40.4219 11.375C40.7578 12.0859 40.9258 12.9219 40.9258 13.8828V20H34.9844L34.5859 18.875C34.3516 19.0547 34.0742 19.2266 33.7539 19.3906C33.4336 19.5547 33.082 19.6992 32.6992 19.8242C32.3164 19.9492 31.9102 20.0469 31.4805 20.1172C31.0508 20.1875 30.6016 20.2227 30.1328 20.2227C29.3672 20.2227 28.6719 20.125 28.0469 19.9297C27.4297 19.7266 26.9023 19.4531 26.4648 19.1094C26.0273 18.7656 25.6875 18.3594 25.4453 17.8906C25.2031 17.4141 25.082 16.8984 25.082 16.3438ZM31.6445 16.0977C31.6445 16.5195 31.7812 16.8633 32.0547 17.1289C32.3281 17.3867 32.6953 17.5156 33.1562 17.5156C33.4062 17.5156 33.6523 17.4766 33.8945 17.3984C34.1367 17.3125 34.3594 17.1875 34.5625 17.0234V15.043C34.1719 14.8086 33.7422 14.6914 33.2734 14.6914C32.7422 14.6914 32.3359 14.8242 32.0547 15.0898C31.7812 15.3477 31.6445 15.6836 31.6445 16.0977ZM43.3398 14.1992C43.3398 13.2852 43.4961 12.457 43.8086 11.7148C44.1289 10.9727 44.5859 10.3398 45.1797 9.81641C45.7734 9.28516 46.4922 8.87891 47.3359 8.59766C48.1875 8.30859 49.1406 8.16406 50.1953 8.16406C51 8.16406 51.7227 8.26172 52.3633 8.45703C53.0039 8.64453 53.5547 8.89453 54.0156 9.20703V0.652344H60.3789V20H54.5195L54.0391 18.5469C53.8203 18.7578 53.5586 18.9648 53.2539 19.168C52.9492 19.3711 52.6133 19.5508 52.2461 19.707C51.8789 19.8633 51.4805 19.9883 51.0508 20.082C50.6289 20.1758 50.1836 20.2227 49.7148 20.2227C48.832 20.2227 48.0039 20.0938 47.2305 19.8359C46.457 19.5781 45.7812 19.1992 45.2031 18.6992C44.625 18.1914 44.168 17.5625 43.832 16.8125C43.5039 16.0547 43.3398 15.1836 43.3398 14.1992ZM49.9023 13.9766C49.9023 14.6484 49.9648 15.2227 50.0898 15.6992C50.2227 16.1758 50.4023 16.5664 50.6289 16.8711C50.8555 17.168 51.125 17.3867 51.4375 17.5273C51.75 17.668 52.0938 17.7383 52.4688 17.7383C52.7656 17.7383 53.043 17.6875 53.3008 17.5859C53.5664 17.4766 53.8047 17.3398 54.0156 17.1758V10.7539C53.8203 10.582 53.5977 10.4492 53.3477 10.3555C53.1055 10.2617 52.8672 10.2148 52.6328 10.2148C52.2422 10.2148 51.8789 10.2891 51.543 10.4375C51.2148 10.5781 50.9258 10.8008 50.6758 11.1055C50.4336 11.4102 50.2422 11.8008 50.1016 12.2773C49.9688 12.7461 49.9023 13.3125 49.9023 13.9766Z" fill="#505050"/>
<path d="M70.5273 11.3047C70.5273 10.4766 70.6328 9.67969 70.8438 8.91406C71.0625 8.14062 71.3789 7.42188 71.793 6.75781C72.207 6.09375 72.7148 5.48828 73.3164 4.94141C73.918 4.39453 74.6016 3.92578 75.3672 3.53516C76.1406 3.14453 76.9922 2.84375 77.9219 2.63281C78.8516 2.41406 79.8516 2.30469 80.9219 2.30469C81.6094 2.30469 82.2656 2.34766 82.8906 2.43359C83.5234 2.51953 84.1172 2.64063 84.6719 2.79688C85.2266 2.94531 85.7383 3.12109 86.207 3.32422C86.6836 3.51953 87.1133 3.72656 87.4961 3.94531L86.4883 5.91406C86.0508 5.70312 85.5508 5.52734 84.9883 5.38672C84.4336 5.23828 83.8555 5.16406 83.2539 5.16406C82.4492 5.16406 81.7031 5.30859 81.0156 5.59766C80.3281 5.88672 79.7344 6.29688 79.2344 6.82812C78.7344 7.35938 78.3398 8.00391 78.0508 8.76172C77.7695 9.51172 77.6289 10.3555 77.6289 11.293C77.6289 12.2227 77.7695 13.0664 78.0508 13.8242C78.332 14.5742 78.7188 15.2188 79.2109 15.7578C79.7109 16.2891 80.3008 16.7031 80.9805 17C81.668 17.2891 82.4102 17.4336 83.207 17.4336C83.7695 17.4336 84.332 17.3672 84.8945 17.2344C85.457 17.0938 85.9727 16.9102 86.4414 16.6836L87.4492 18.6523C87.0664 18.8789 86.6406 19.0898 86.1719 19.2852C85.7031 19.4805 85.1953 19.6562 84.6484 19.8125C84.1016 19.9609 83.5156 20.0781 82.8906 20.1641C82.2656 20.25 81.6094 20.293 80.9219 20.293C79.3203 20.293 77.875 20.0586 76.5859 19.5898C75.3047 19.1133 74.2148 18.4688 73.3164 17.6562C72.418 16.8359 71.7266 15.8828 71.2422 14.7969C70.7656 13.7031 70.5273 12.5391 70.5273 11.3047ZM88.8555 14.1992C88.8555 13.2773 89.043 12.4453 89.418 11.7031C89.8008 10.9609 90.3477 10.3281 91.0586 9.80469C91.7773 9.28125 92.6523 8.87891 93.6836 8.59766C94.7148 8.30859 95.8867 8.16406 97.1992 8.16406C98.5117 8.16406 99.6836 8.30859 100.715 8.59766C101.746 8.87891 102.617 9.28125 103.328 9.80469C104.047 10.3281 104.594 10.9609 104.969 11.7031C105.352 12.4453 105.543 13.2773 105.543 14.1992C105.543 15.1133 105.352 15.9414 104.969 16.6836C104.594 17.4258 104.047 18.0586 103.328 18.582C102.617 19.1055 101.746 19.5117 100.715 19.8008C99.6836 20.082 98.5117 20.2227 97.1992 20.2227C95.8867 20.2227 94.7148 20.082 93.6836 19.8008C92.6523 19.5117 91.7773 19.1055 91.0586 18.582C90.3477 18.0586 89.8008 17.4258 89.418 16.6836C89.043 15.9414 88.8555 15.1133 88.8555 14.1992ZM97.1992 18.0781C97.4883 18.0781 97.7461 18.0195 97.9727 17.9023C98.1992 17.7852 98.3867 17.582 98.5352 17.293C98.6836 16.9961 98.7969 16.5977 98.875 16.0977C98.9531 15.5977 98.9922 14.9648 98.9922 14.1992C98.9922 13.4258 98.9531 12.7891 98.875 12.2891C98.7969 11.7891 98.6836 11.3945 98.5352 11.1055C98.3867 10.8086 98.1992 10.6016 97.9727 10.4844C97.7461 10.3672 97.4883 10.3086 97.1992 10.3086C96.9023 10.3086 96.6406 10.3672 96.4141 10.4844C96.1953 10.6016 96.0117 10.8086 95.8633 11.1055C95.7148 11.3945 95.6016 11.7891 95.5234 12.2891C95.4453 12.7891 95.4062 13.4258 95.4062 14.1992C95.4062 14.9648 95.4453 15.5977 95.5234 16.0977C95.6016 16.5977 95.7148 16.9961 95.8633 17.293C96.0117 17.582 96.1953 17.7852 96.4141 17.9023C96.6406 18.0195 96.9023 18.0781 97.1992 18.0781ZM107.301 14.1992C107.301 13.2852 107.457 12.457 107.77 11.7148C108.09 10.9727 108.547 10.3398 109.141 9.81641C109.734 9.28516 110.453 8.87891 111.297 8.59766C112.148 8.30859 113.102 8.16406 114.156 8.16406C114.961 8.16406 115.684 8.26172 116.324 8.45703C116.965 8.64453 117.516 8.89453 117.977 9.20703V0.652344H124.34V20H118.48L118 18.5469C117.781 18.7578 117.52 18.9648 117.215 19.168C116.91 19.3711 116.574 19.5508 116.207 19.707C115.84 19.8633 115.441 19.9883 115.012 20.082C114.59 20.1758 114.145 20.2227 113.676 20.2227C112.793 20.2227 111.965 20.0938 111.191 19.8359C110.418 19.5781 109.742 19.1992 109.164 18.6992C108.586 18.1914 108.129 17.5625 107.793 16.8125C107.465 16.0547 107.301 15.1836 107.301 14.1992ZM113.863 13.9766C113.863 14.6484 113.926 15.2227 114.051 15.6992C114.184 16.1758 114.363 16.5664 114.59 16.8711C114.816 17.168 115.086 17.3867 115.398 17.5273C115.711 17.668 116.055 17.7383 116.43 17.7383C116.727 17.7383 117.004 17.6875 117.262 17.5859C117.527 17.4766 117.766 17.3398 117.977 17.1758V10.7539C117.781 10.582 117.559 10.4492 117.309 10.3555C117.066 10.2617 116.828 10.2148 116.594 10.2148C116.203 10.2148 115.84 10.2891 115.504 10.4375C115.176 10.5781 114.887 10.8008 114.637 11.1055C114.395 11.4102 114.203 11.8008 114.062 12.2773C113.93 12.7461 113.863 13.3125 113.863 13.9766ZM126.871 14.1289C126.871 13.457 126.977 12.8438 127.188 12.2891C127.398 11.7344 127.688 11.2383 128.055 10.8008C128.43 10.3555 128.871 9.96875 129.379 9.64062C129.887 9.3125 130.438 9.03906 131.031 8.82031C131.625 8.60156 132.246 8.4375 132.895 8.32812C133.543 8.21875 134.199 8.16406 134.863 8.16406C135.738 8.16406 136.531 8.25391 137.242 8.43359C137.961 8.60547 138.598 8.84375 139.152 9.14844C139.715 9.45312 140.199 9.80859 140.605 10.2148C141.02 10.6211 141.359 11.0547 141.625 11.5156C141.898 11.9688 142.098 12.4375 142.223 12.9219C142.355 13.4062 142.422 13.8789 142.422 14.3398L133.562 15.4062C133.734 16.2734 134.078 16.9453 134.594 17.4219C135.109 17.8984 135.832 18.1367 136.762 18.1367C137.27 18.1367 137.742 18.0742 138.18 17.9492C138.625 17.8242 138.973 17.6719 139.223 17.4922L140.16 19.1328C139.871 19.2812 139.555 19.4219 139.211 19.5547C138.875 19.6875 138.5 19.8047 138.086 19.9062C137.68 20 137.227 20.0742 136.727 20.1289C136.234 20.1914 135.691 20.2227 135.098 20.2227C133.676 20.2227 132.449 20.0586 131.418 19.7305C130.387 19.3945 129.531 18.9492 128.852 18.3945C128.18 17.832 127.68 17.1836 127.352 16.4492C127.031 15.7148 126.871 14.9414 126.871 14.1289ZM136.738 13.1445C136.738 12.1289 136.609 11.3906 136.352 10.9297C136.102 10.4688 135.727 10.2383 135.227 10.2383C134.969 10.2383 134.73 10.3008 134.512 10.4258C134.293 10.5508 134.105 10.7461 133.949 11.0117C133.793 11.2773 133.668 11.6211 133.574 12.043C133.48 12.457 133.43 12.9609 133.422 13.5547L136.738 13.1445Z" fill="#FF8080"/>
</svg>
