<svg width="144" height="202" viewBox="0 0 144 202" fill="none" xmlns="http://www.w3.org/2000/svg">
<g clip-path="url(#clip0_33_27)">
<path d="M0.483383 39.4728L0.506035 41.278C0.518517 42.2709 3.40606 75.1435 6.92289 114.328L13.3171 185.573L42.056 193.588C57.8623 197.997 71.121 201.626 71.5197 201.654C71.9184 201.681 85.3522 198.089 101.373 193.67C127.058 186.585 130.526 185.518 130.71 184.641C130.966 183.419 143.544 42.0683 143.531 40.5559L143.522 39.4728H72.0025H0.483383Z" fill="white"/>
<path d="M42.2835 194.068L13.2891 185.994L12.9102 183.858C12.5734 181.959 0 42.0666 0 40.2182C0 39.5493 7.34126 39.4733 72.0028 39.4733C140.257 39.4733 144.005 39.5172 144 40.3157C143.977 43.7649 130.963 185.51 130.643 185.792C130.239 186.148 74.1196 201.723 72.2444 201.999C71.7128 202.077 58.2304 198.508 42.2835 194.068ZM90.2853 165.541C100.031 162.864 108.145 160.535 108.317 160.366C108.489 160.198 109.629 148.687 110.851 134.787C112.073 120.887 113.196 108.594 113.347 107.469L113.621 105.423H92.5701H71.5195V114.328V123.234H82.8849H94.2502L94.0241 124.317C93.8998 124.913 93.4164 130.032 92.95 135.693C92.4558 141.692 91.8699 146.217 91.5457 146.54C91.2397 146.845 86.6086 148.258 81.2544 149.679L71.5195 152.264V161.337C71.5195 167.529 71.6857 170.409 72.043 170.409C72.3309 170.409 80.54 168.219 90.2853 165.541ZM113.344 94.2305C113.024 91.8717 110.179 60.2343 110.179 59.0414C110.179 58.3168 108.506 58.2472 91.0908 58.2472H72.0028V67.5597V76.8722L80.5803 77.2015C85.2979 77.3826 90.2628 77.6583 91.6133 77.8141L94.0688 78.0973L94.6649 85.3817C94.9928 89.3881 95.3834 93.4784 95.533 94.4712L95.8051 96.2764H104.713H113.621L113.344 94.2305Z" fill="#EAEBEC"/>
<path d="M42.0559 193.588L13.3171 185.573L6.92286 114.328C3.40603 75.1437 0.518416 42.2714 0.505934 41.2785L0.483246 39.4733H72.0028H143.522L143.532 40.5564C143.544 42.0688 130.966 183.42 130.71 184.642C130.526 185.519 127.058 186.586 101.373 193.671C85.3522 198.089 71.9182 201.682 71.5196 201.654C71.1209 201.626 57.8622 197.997 42.0559 193.588H42.0559ZM90.3072 165.882C100.242 163.13 108.511 160.652 108.683 160.374C108.856 160.096 110.042 147.998 111.321 133.488C112.599 118.979 113.749 106.728 113.877 106.265C114.097 105.469 112.407 105.423 83.2469 105.423H52.3839L53.698 91.5829C54.4207 83.9711 55.0294 77.7235 55.0507 77.6994C55.072 77.6753 59.6016 77.5314 65.1166 77.3796C74.1596 77.1306 92.808 77.8492 93.4319 78.4707C93.6649 78.7029 95.1983 93.6885 95.1983 95.7342C95.1983 96.7428 95.3349 96.7578 104.562 96.7578H113.926L113.705 94.7119C113.584 93.5867 112.791 84.8676 111.943 75.3363L110.401 58.0065L74.2883 57.8831C45.5589 57.7849 38.1752 57.8834 38.172 58.3645C38.1695 58.6971 37.9593 60.8106 37.7041 63.061C37.0866 68.5068 32.3771 121.124 32.3771 122.577V123.715H63.1053H93.8335L93.5596 125.52C93.4089 126.513 92.9313 131.55 92.4981 136.712C92.065 141.875 91.5711 146.233 91.4007 146.396C90.9505 146.826 72.8735 151.637 71.7462 151.626C71.2229 151.621 66.5542 150.461 61.3715 149.048L51.9483 146.478L51.6028 142.438C51.4127 140.216 51.1236 137.043 50.9602 135.389L50.6633 132.38H41.5202H32.3771L32.3973 134.185C32.4352 137.561 34.6328 160.301 34.9519 160.619C35.321 160.986 70.4382 170.82 71.5196 170.858C71.9182 170.872 80.3727 168.633 90.3072 165.882H90.3072Z" fill="#F0BE25"/>
<path d="M42.0559 193.588L13.3171 185.573L6.92286 114.328C3.40603 75.1437 0.518416 42.2714 0.505934 41.2785L0.483246 39.4733H72.0028H143.522L143.532 40.5564C143.544 42.0688 130.966 183.42 130.71 184.642C130.526 185.519 127.058 186.586 101.373 193.671C85.3522 198.089 71.9182 201.682 71.5196 201.654C71.1209 201.626 57.8622 197.997 42.0559 193.588H42.0559ZM95.65 182.865C108.292 179.39 118.873 176.303 119.163 176.005C119.615 175.542 130.533 56.3383 130.489 52.3503L130.475 51.0265H101.239H72.0028V54.3962V57.7658H55.0894C41.8829 57.7658 38.1751 57.8977 38.172 58.3676C38.1695 58.6985 37.9593 60.8106 37.7041 63.061C37.0866 68.5068 32.3771 121.124 32.3771 122.577V123.715H52.1899H72.0028V137.675C72.0028 148.527 71.8683 151.633 71.3987 151.626C71.0665 151.621 66.5542 150.461 61.3715 149.048L51.9483 146.478L51.6028 142.438C51.4127 140.216 51.1236 137.043 50.9602 135.389L50.6633 132.38H41.5202H32.3771L32.3973 134.185C32.4552 139.349 34.6975 160.425 35.2234 160.749C35.543 160.946 43.9491 163.352 53.9037 166.096L72.0028 171.085V180.134C72.0028 185.111 72.1517 189.183 72.3337 189.183C72.5157 189.183 83.008 186.34 95.65 182.865ZM53.6471 91.7123C54.3418 84.1716 55.0049 77.9166 55.1206 77.8123C55.2363 77.708 59.0821 77.5192 63.6669 77.3929L72.0028 77.1631V91.2929V105.423H62.1934H52.3839L53.6471 91.7123Z" fill="#E4A126"/>
<path d="M45.9078 22.3843V17.8111H52.4315H58.9553V8.90557V0H63.5461H68.1368V13.4787V26.9574H57.0223H45.9078V22.3843ZM72.486 23.347V19.7367H78.5265C81.8488 19.7367 84.567 19.6143 84.567 19.4648C84.567 19.3153 81.8488 16.2583 78.5265 12.6715L72.486 6.14998V3.07499V0H85.0502H97.6145V3.59555V7.19109L91.7161 7.32626L85.8178 7.46142L91.9577 14.0483L98.0977 20.6351V23.7963V26.9574H85.2919H72.486V23.347Z" fill="#0E0E0F"/>
</g>
<defs>
<clipPath id="clip0_33_27">
<rect width="144" height="202" fill="white"/>
</clipPath>
</defs>
</svg>
